<?xml version="1.0" encoding="utf-8"?>
<!-- Generator: Adobe Illustrator 23.0.2, SVG Export Plug-In . SVG Version: 6.00 Build 0)  -->
<svg version="1.1"
	 id="svg68" inkscape:version="1.0.1 (3bc2e813f5, 2020-09-07)" sodipodi:docname="jodcLogoWB.svg" xmlns:cc="http://creativecommons.org/ns#" xmlns:dc="http://purl.org/dc/elements/1.1/" xmlns:inkscape="http://www.inkscape.org/namespaces/inkscape" xmlns:rdf="http://www.w3.org/1999/02/22-rdf-syntax-ns#" xmlns:sodipodi="http://sodipodi.sourceforge.net/DTD/sodipodi-0.dtd" xmlns:svg="http://www.w3.org/2000/svg"
	 xmlns="http://www.w3.org/2000/svg" xmlns:xlink="http://www.w3.org/1999/xlink" x="0px" y="0px" viewBox="0 0 988 265"
	 style="enable-background:new 0 0 988 265;" xml:space="preserve">
<style type="text/css">
	.st0{fill:none;stroke:#CC0066;stroke-width:68;}
	.st1{fill:none;stroke:#CC0099;stroke-width:68;}
	.st2{fill:none;stroke:#CC00CC;stroke-width:68;}
	.st3{fill:none;stroke:#C0C0C0;stroke-width:68;}
	.st4{fill:none;stroke:#8600B3;stroke-width:68;}
</style>
<sodipodi:namedview  bordercolor="#666666" borderopacity="1" fit-margin-bottom="0" fit-margin-left="0" fit-margin-right="0" fit-margin-top="0" gridtolerance="10" guidetolerance="10" id="namedview70" inkscape:current-layer="g62" inkscape:cx="42.397209" inkscape:cy="64.408588" inkscape:document-rotation="0" inkscape:pageopacity="0" inkscape:pageshadow="2" inkscape:window-height="1016" inkscape:window-maximized="0" inkscape:window-width="1920" inkscape:window-x="0" inkscape:window-y="27" inkscape:zoom="2.3334524" objecttolerance="10" pagecolor="#ffffff" showgrid="false">
	</sodipodi:namedview>
<path id="path52" class="st0" d="M136.5,0v171.5c-4,37.1-37.1,63.9-73.9,59.8c-14.7-1.6-28.4-8.1-39.1-18.4"/>
<ellipse id="circle54" class="st1" cx="326.5" cy="132.9" rx="95" ry="98.1"/>
<path id="path56" class="st2" d="M516.5,0v231h60c54.4,0,98.5-44.1,98.5-98.5S630.9,34,576.5,34h-60V0z"/>
<path id="circle58" class="st3" d="M919.2,80.7c9,15,14.2,32.8,14.2,51.8c0,19-5.2,36.7-14.2,51.8"/>
<path id="path60" class="st4" d="M919.2,80.7C891.6,34.6,833,20.3,788.4,48.9c-44.6,28.6-58.4,89.2-30.8,135.4
	c27.6,46.2,86.2,60.4,130.8,31.9c12.5-8,23-18.9,30.8-31.9"/>
</svg>
